<?xml version="1.0" encoding="UTF-8" standalone="no"?>
<svg
   xmlns:dc="http://purl.org/dc/elements/1.1/"
   xmlns:cc="http://creativecommons.org/ns#"
   xmlns:rdf="http://www.w3.org/1999/02/22-rdf-syntax-ns#"
   xmlns:svg="http://www.w3.org/2000/svg"
   xmlns="http://www.w3.org/2000/svg"
   xmlns:sodipodi="http://sodipodi.sourceforge.net/DTD/sodipodi-0.dtd"
   xmlns:inkscape="http://www.inkscape.org/namespaces/inkscape"
   version="1.1"
   width="29.700220cm"
   height="21.000720cm"
   viewBox="0 0 116930 82680"
   id="svg842"
   sodipodi:docname="AutoPower_Modul-F_Cu.svg"
   inkscape:version="0.92.4 (5da689c313, 2019-01-14)">
  <metadata
     id="metadata848">
    <rdf:RDF>
      <cc:Work
         rdf:about="">
        <dc:format>image/svg+xml</dc:format>
        <dc:type
           rdf:resource="http://purl.org/dc/dcmitype/StillImage" />
      </cc:Work>
    </rdf:RDF>
  </metadata>
  <defs
     id="defs846" />
  <sodipodi:namedview
     pagecolor="#ffffff"
     bordercolor="#666666"
     borderopacity="1"
     objecttolerance="10"
     gridtolerance="10"
     guidetolerance="10"
     inkscape:pageopacity="0"
     inkscape:pageshadow="2"
     inkscape:window-width="3840"
     inkscape:window-height="2019"
     id="namedview844"
     showgrid="false"
     inkscape:zoom="2.1707689"
     inkscape:cx="561.264"
     inkscape:cy="396.86398"
     inkscape:window-x="-14"
     inkscape:window-y="-14"
     inkscape:window-maximized="1"
     inkscape:current-layer="svg842" />
  <title
     id="title430">SVG Picture created as AutoPower_Modul-F_Cu.svg date 2021/02/25 10:36:02 </title>
  <desc
     id="desc432">Picture generated by PCBNEW </desc>
  <g
     style="fill:#000000; fill-opacity:1;stroke:#000000; stroke-opacity:1; stroke-linecap:round; stroke-linejoin:round;"
     transform="translate(0 0) scale(1 1)"
     id="g434" />
  <g
     style="fill:#000000; fill-opacity:0.0;  stroke:#000000; stroke-width:-0.000393701; stroke-opacity:1;  stroke-linecap:round; stroke-linejoin:round;"
     id="g436" />
  <g
     style="fill:#000000;fill-opacity:1;stroke:#000000;stroke-width:39.37009811;stroke-linecap:round;stroke-linejoin:round;stroke-opacity:1"
     id="g440"
     transform="matrix(0.84428601,0,0,0.67302968,8236.1191,12900.651)">
    <rect
       x="40977.398"
       y="32591.5"
       width="30010.4"
       height="13870.1"
       rx="0"
       id="rect438" />
  </g>
  <g
     style="fill:#FFFFFF; fill-opacity:1.0;  stroke:#FFFFFF; stroke-width:39.3701; stroke-opacity:1;  stroke-linecap:round; stroke-linejoin:round;"
     id="g840">
    <g
       id="g442" />
    <g
       style="fill:#FFFFFF; fill-opacity:1.0;  stroke:#FFFFFF; stroke-width:0; stroke-opacity:1;  stroke-linecap:round; stroke-linejoin:round;"
       id="g446">
      <circle
         cx="52100"
         cy="43000"
         r="748.031"
         id="circle444" />
    </g>
    <g
       style="fill:#FFFFFF; fill-opacity:1.0;  stroke:#FFFFFF; stroke-width:39.3701; stroke-opacity:1;  stroke-linecap:round; stroke-linejoin:round;"
       id="g448" />
    <g
       style="fill:#FFFFFF; fill-opacity:1.0;  stroke:#FFFFFF; stroke-width:0; stroke-opacity:1;  stroke-linecap:round; stroke-linejoin:round;"
       id="g452">
      <circle
         cx="52100"
         cy="43000"
         r="511.811"
         id="circle450" />
    </g>
    <g
       style="fill:#FFFFFF; fill-opacity:1.0;  stroke:#FFFFFF; stroke-width:39.3701; stroke-opacity:1;  stroke-linecap:round; stroke-linejoin:round;"
       id="g454" />
    <g
       id="g456" />
    <g
       style="fill:#FFFFFF; fill-opacity:1.0;  stroke:#FFFFFF; stroke-width:39.3701; stroke-opacity:1;  stroke-linecap:round; stroke-linejoin:round;"
       id="g458" />
    <g
       style="fill:#FFFFFF; fill-opacity:1.0;  stroke:#FFFFFF; stroke-width:0; stroke-opacity:1;  stroke-linecap:round; stroke-linejoin:round;"
       id="g462">
      <circle
         cx="62100"
         cy="36000"
         r="748.031"
         id="circle460" />
    </g>
    <g
       style="fill:#FFFFFF; fill-opacity:1.0;  stroke:#FFFFFF; stroke-width:39.3701; stroke-opacity:1;  stroke-linecap:round; stroke-linejoin:round;"
       id="g464" />
    <g
       style="fill:#FFFFFF; fill-opacity:1.0;  stroke:#FFFFFF; stroke-width:0; stroke-opacity:1;  stroke-linecap:round; stroke-linejoin:round;"
       id="g468">
      <circle
         cx="62100"
         cy="36000"
         r="511.811"
         id="circle466" />
    </g>
    <g
       style="fill:#FFFFFF; fill-opacity:1.0;  stroke:#FFFFFF; stroke-width:39.3701; stroke-opacity:1;  stroke-linecap:round; stroke-linejoin:round;"
       id="g470" />
    <g
       id="g472" />
    <g
       style="fill:#FFFFFF; fill-opacity:1.0;  stroke:#FFFFFF; stroke-width:39.3701; stroke-opacity:1;  stroke-linecap:round; stroke-linejoin:round;"
       id="g474" />
    <g
       style="fill:#FFFFFF; fill-opacity:1.0;  stroke:#FFFFFF; stroke-width:0; stroke-opacity:1;  stroke-linecap:round; stroke-linejoin:round;"
       id="g478">
      <circle
         cx="52100"
         cy="36000"
         r="748.031"
         id="circle476" />
    </g>
    <g
       style="fill:#FFFFFF; fill-opacity:1.0;  stroke:#FFFFFF; stroke-width:39.3701; stroke-opacity:1;  stroke-linecap:round; stroke-linejoin:round;"
       id="g480" />
    <g
       style="fill:#FFFFFF; fill-opacity:1.0;  stroke:#FFFFFF; stroke-width:0; stroke-opacity:1;  stroke-linecap:round; stroke-linejoin:round;"
       id="g484">
      <circle
         cx="52100"
         cy="36000"
         r="511.811"
         id="circle482" />
    </g>
    <g
       style="fill:#FFFFFF; fill-opacity:1.0;  stroke:#FFFFFF; stroke-width:39.3701; stroke-opacity:1;  stroke-linecap:round; stroke-linejoin:round;"
       id="g486" />
    <g
       id="g488" />
    <g
       style="fill:#FFFFFF; fill-opacity:1.0;  stroke:#FFFFFF; stroke-width:39.3701; stroke-opacity:1;  stroke-linecap:round; stroke-linejoin:round;"
       id="g490" />
    <g
       style="fill:#FFFFFF; fill-opacity:1.0;  stroke:#FFFFFF; stroke-width:0; stroke-opacity:1;  stroke-linecap:round; stroke-linejoin:round;"
       id="g496">
      <path
         style="fill:#FFFFFF; fill-opacity:1.0;  stroke:#FFFFFF; stroke-width:0; stroke-opacity:1;  stroke-linecap:round; stroke-linejoin:round;fill-rule:evenodd;"
         d="M 45472.4,42850.4 44527.6,42850.4 44527.6,41905.5 45472.4,41905.5 Z"
         id="path492" />
      <circle
         cx="45000"
         cy="41000"
         r="472.441"
         id="circle494" />
    </g>
    <g
       style="fill:#FFFFFF; fill-opacity:1.0;  stroke:#FFFFFF; stroke-width:39.3701; stroke-opacity:1;  stroke-linecap:round; stroke-linejoin:round;"
       id="g498" />
    <g
       style="fill:#FFFFFF; fill-opacity:1.0;  stroke:#FFFFFF; stroke-width:0; stroke-opacity:1;  stroke-linecap:round; stroke-linejoin:round;"
       id="g502">
      <circle
         cx="45000"
         cy="39622"
         r="472.441"
         id="circle500" />
    </g>
    <g
       style="fill:#FFFFFF; fill-opacity:1.0;  stroke:#FFFFFF; stroke-width:39.3701; stroke-opacity:1;  stroke-linecap:round; stroke-linejoin:round;"
       id="g504" />
    <g
       style="fill:#FFFFFF; fill-opacity:1.0;  stroke:#FFFFFF; stroke-width:0; stroke-opacity:1;  stroke-linecap:round; stroke-linejoin:round;"
       id="g508">
      <circle
         cx="45000"
         cy="38244.1"
         r="472.441"
         id="circle506" />
    </g>
    <g
       style="fill:#FFFFFF; fill-opacity:1.0;  stroke:#FFFFFF; stroke-width:39.3701; stroke-opacity:1;  stroke-linecap:round; stroke-linejoin:round;"
       id="g510" />
    <g
       style="fill:#FFFFFF; fill-opacity:1.0;  stroke:#FFFFFF; stroke-width:0; stroke-opacity:1;  stroke-linecap:round; stroke-linejoin:round;"
       id="g514">
      <circle
         cx="45000"
         cy="36866.1"
         r="472.441"
         id="circle512" />
    </g>
    <g
       style="fill:#FFFFFF; fill-opacity:1.0;  stroke:#FFFFFF; stroke-width:39.3701; stroke-opacity:1;  stroke-linecap:round; stroke-linejoin:round;"
       id="g516" />
    <g
       id="g518" />
    <g
       style="fill:#FFFFFF; fill-opacity:1.0;  stroke:#FFFFFF; stroke-width:39.3701; stroke-opacity:1;  stroke-linecap:round; stroke-linejoin:round;"
       id="g520" />
    <g
       style="fill:#FFFFFF; fill-opacity:1.0;  stroke:#FFFFFF; stroke-width:0; stroke-opacity:1;  stroke-linecap:round; stroke-linejoin:round;"
       id="g526">
      <path
         style="fill:#FFFFFF; fill-opacity:1.0;  stroke:#FFFFFF; stroke-width:0; stroke-opacity:1;  stroke-linecap:round; stroke-linejoin:round;fill-rule:evenodd;"
         d="M 66472.4,40472.4 65527.6,40472.4 65527.6,39527.6 66472.4,39527.6 Z"
         id="path522" />
      <circle
         cx="66000"
         cy="38622"
         r="472.441"
         id="circle524" />
    </g>
    <g
       style="fill:#FFFFFF; fill-opacity:1.0;  stroke:#FFFFFF; stroke-width:39.3701; stroke-opacity:1;  stroke-linecap:round; stroke-linejoin:round;"
       id="g528" />
    <g
       id="g530" />
    <g
       style="fill:#FFFFFF; fill-opacity:1.0;  stroke:#FFFFFF; stroke-width:39.3701; stroke-opacity:1;  stroke-linecap:round; stroke-linejoin:round;"
       id="g532" />
    <g
       style="fill:#FFFFFF; fill-opacity:1.0;  stroke:#FFFFFF; stroke-width:0; stroke-opacity:1;  stroke-linecap:round; stroke-linejoin:round;"
       id="g546">
      <path
         style="fill:#FFFFFF; fill-opacity:1.0;  stroke:#FFFFFF; stroke-width:0; stroke-opacity:1;  stroke-linecap:round; stroke-linejoin:round;fill-rule:evenodd;"
         d="M 48665.4,37334.6 48665.4,36665.4 49334.6,36665.4 49334.6,37334.6 Z"
         id="path534" />
      <circle
         cx="49000"
         cy="38000"
         r="334.646"
         id="circle536" />
      <circle
         cx="49000"
         cy="39000"
         r="334.646"
         id="circle538" />
      <circle
         cx="49000"
         cy="40000"
         r="334.646"
         id="circle540" />
      <circle
         cx="49000"
         cy="41000"
         r="334.646"
         id="circle542" />
      <circle
         cx="49000"
         cy="42000"
         r="334.646"
         id="circle544" />
    </g>
    <g
       id="g548" />
    <g
       style="fill:#FFFFFF; fill-opacity:1.0;  stroke:#FFFFFF; stroke-width:0; stroke-opacity:1;  stroke-linecap:round; stroke-linejoin:round;"
       id="g556">
      <path
         style="fill:#FFFFFF; fill-opacity:1.0;  stroke:#FFFFFF; stroke-width:0; stroke-opacity:1;  stroke-linecap:round; stroke-linejoin:round;fill-rule:evenodd;"
         d="M 59283.5,38342.5 59283.5,38657.5 58535.4,38657.5 58535.4,38342.5 Z"
         id="path550" />
      <path
         style="fill:#FFFFFF; fill-opacity:1.0;  stroke:#FFFFFF; stroke-width:0; stroke-opacity:1;  stroke-linecap:round; stroke-linejoin:round;fill-rule:evenodd;"
         d="M 60464.6,37968.5 60464.6,38283.5 59716.5,38283.5 59716.5,37968.5 Z"
         id="path552" />
      <path
         style="fill:#FFFFFF; fill-opacity:1.0;  stroke:#FFFFFF; stroke-width:0; stroke-opacity:1;  stroke-linecap:round; stroke-linejoin:round;fill-rule:evenodd;"
         d="M 60464.6,38716.5 60464.6,39031.5 59716.5,39031.5 59716.5,38716.5 Z"
         id="path554" />
    </g>
    <g
       id="g558" />
    <g
       style="fill:#FFFFFF; fill-opacity:1.0;  stroke:#FFFFFF; stroke-width:0; stroke-opacity:1;  stroke-linecap:round; stroke-linejoin:round;"
       id="g566">
      <path
         style="fill:#FFFFFF; fill-opacity:1.0;  stroke:#FFFFFF; stroke-width:0; stroke-opacity:1;  stroke-linecap:round; stroke-linejoin:round;fill-rule:evenodd;"
         d="M 57126,41283.5 57126,40968.5 57874,40968.5 57874,41283.5 Z"
         id="path560" />
      <path
         style="fill:#FFFFFF; fill-opacity:1.0;  stroke:#FFFFFF; stroke-width:0; stroke-opacity:1;  stroke-linecap:round; stroke-linejoin:round;fill-rule:evenodd;"
         d="M 57126,42031.5 57126,41716.5 57874,41716.5 57874,42031.5 Z"
         id="path562" />
      <path
         style="fill:#FFFFFF; fill-opacity:1.0;  stroke:#FFFFFF; stroke-width:0; stroke-opacity:1;  stroke-linecap:round; stroke-linejoin:round;fill-rule:evenodd;"
         d="M 58307.1,41657.5 58307.1,41342.5 59055.1,41342.5 59055.1,41657.5 Z"
         id="path564" />
    </g>
    <g
       id="g568" />
    <g
       style="fill:#FFFFFF; fill-opacity:1.0;  stroke:#FFFFFF; stroke-width:0; stroke-opacity:1;  stroke-linecap:round; stroke-linejoin:round;"
       id="g576">
      <path
         style="fill:#FFFFFF; fill-opacity:1.0;  stroke:#FFFFFF; stroke-width:0; stroke-opacity:1;  stroke-linecap:round; stroke-linejoin:round;fill-rule:evenodd;"
         d="M 57464.6,38716.5 57464.6,39031.5 56716.5,39031.5 56716.5,38716.5 Z"
         id="path570" />
      <path
         style="fill:#FFFFFF; fill-opacity:1.0;  stroke:#FFFFFF; stroke-width:0; stroke-opacity:1;  stroke-linecap:round; stroke-linejoin:round;fill-rule:evenodd;"
         d="M 57464.6,37968.5 57464.6,38283.5 56716.5,38283.5 56716.5,37968.5 Z"
         id="path572" />
      <path
         style="fill:#FFFFFF; fill-opacity:1.0;  stroke:#FFFFFF; stroke-width:0; stroke-opacity:1;  stroke-linecap:round; stroke-linejoin:round;fill-rule:evenodd;"
         d="M 56283.5,38342.5 56283.5,38657.5 55535.4,38657.5 55535.4,38342.5 Z"
         id="path574" />
    </g>
    <g
       id="g578" />
    <g
       style="fill:#FFFFFF; fill-opacity:1.0;  stroke:#FFFFFF; stroke-width:0; stroke-opacity:1;  stroke-linecap:round; stroke-linejoin:round;"
       id="g584">
      <path
         style="fill:#FFFFFF; fill-opacity:1.0;  stroke:#FFFFFF; stroke-width:0; stroke-opacity:1;  stroke-linecap:round; stroke-linejoin:round;fill-rule:evenodd;"
         d="M 54255.7,40634.3 54265.3,40635.7 54274.6,40638.1 54283.7,40641.4 54292.5,40645.5 54300.7,40650.4 54308.5,40656.2 54315.7,40662.7 54322.1,40669.8 54327.9,40677.6 54332.9,40685.9 54337,40694.6 54340.2,40703.7 54342.6,40713.1 54344,40722.6 54344.5,40732.3 54344.5,41047.2 54344,41056.9 54342.6,41066.4 54340.2,41075.8 54337,41084.9 54332.9,41093.6 54327.9,41101.9 54322.1,41109.7 54315.7,41116.8 54308.5,41123.3 54300.7,41129.1 54292.5,41134 54283.7,41138.2 54274.6,41141.4 54265.3,41143.8 54255.7,41145.2 54246.1,41145.7 53753.9,41145.7 53744.3,41145.2 53734.7,41143.8 53725.4,41141.4 53716.3,41138.2 53707.5,41134 53699.3,41129.1 53691.5,41123.3 53684.3,41116.8 53677.9,41109.7 53672.1,41101.9 53667.1,41093.6 53663,41084.9 53659.8,41075.8 53657.4,41066.4 53656,41056.9 53655.5,41047.2 53655.5,40732.3 53656,40722.6 53657.4,40713.1 53659.8,40703.7 53663,40694.6 53667.1,40685.9 53672.1,40677.6 53677.9,40669.8 53684.3,40662.7 53691.5,40656.2 53699.3,40650.4 53707.5,40645.5 53716.3,40641.4 53725.4,40638.1 53734.7,40635.7 53744.3,40634.3 53753.9,40633.9 54246.1,40633.9 Z"
         id="path580" />
      <path
         style="fill:#FFFFFF; fill-opacity:1.0;  stroke:#FFFFFF; stroke-width:0; stroke-opacity:1;  stroke-linecap:round; stroke-linejoin:round;fill-rule:evenodd;"
         d="M 54255.7,41854.8 54265.3,41856.2 54274.6,41858.6 54283.7,41861.8 54292.5,41866 54300.7,41870.9 54308.5,41876.7 54315.7,41883.2 54322.1,41890.3 54327.9,41898.1 54332.9,41906.4 54337,41915.1 54340.2,41924.2 54342.6,41933.6 54344,41943.1 54344.5,41952.8 54344.5,42267.7 54344,42277.4 54342.6,42286.9 54340.2,42296.3 54337,42305.4 54332.9,42314.1 54327.9,42322.4 54322.1,42330.2 54315.7,42337.3 54308.5,42343.8 54300.7,42349.6 54292.5,42354.5 54283.7,42358.6 54274.6,42361.9 54265.3,42364.3 54255.7,42365.7 54246.1,42366.1 53753.9,42366.1 53744.3,42365.7 53734.7,42364.3 53725.4,42361.9 53716.3,42358.6 53707.5,42354.5 53699.3,42349.6 53691.5,42343.8 53684.3,42337.3 53677.9,42330.2 53672.1,42322.4 53667.1,42314.1 53663,42305.4 53659.8,42296.3 53657.4,42286.9 53656,42277.4 53655.5,42267.7 53655.5,41952.8 53656,41943.1 53657.4,41933.6 53659.8,41924.2 53663,41915.1 53667.1,41906.4 53672.1,41898.1 53677.9,41890.3 53684.3,41883.2 53691.5,41876.7 53699.3,41870.9 53707.5,41866 53716.3,41861.8 53725.4,41858.6 53734.7,41856.2 53744.3,41854.8 53753.9,41854.3 54246.1,41854.3 Z"
         id="path582" />
    </g>
    <g
       id="g586" />
    <g
       style="fill:#FFFFFF; fill-opacity:1.0;  stroke:#FFFFFF; stroke-width:0; stroke-opacity:1;  stroke-linecap:round; stroke-linejoin:round;"
       id="g592">
      <path
         style="fill:#FFFFFF; fill-opacity:1.0;  stroke:#FFFFFF; stroke-width:0; stroke-opacity:1;  stroke-linecap:round; stroke-linejoin:round;fill-rule:evenodd;"
         d="M 56005.7,40634.3 56015.3,40635.7 56024.6,40638.1 56033.7,40641.4 56042.5,40645.5 56050.7,40650.4 56058.5,40656.2 56065.7,40662.7 56072.1,40669.8 56077.9,40677.6 56082.9,40685.9 56087,40694.6 56090.2,40703.7 56092.6,40713.1 56094,40722.6 56094.5,40732.3 56094.5,41047.2 56094,41056.9 56092.6,41066.4 56090.2,41075.8 56087,41084.9 56082.9,41093.6 56077.9,41101.9 56072.1,41109.7 56065.7,41116.8 56058.5,41123.3 56050.7,41129.1 56042.5,41134 56033.7,41138.2 56024.6,41141.4 56015.3,41143.8 56005.7,41145.2 55996.1,41145.7 55503.9,41145.7 55494.3,41145.2 55484.7,41143.8 55475.4,41141.4 55466.3,41138.2 55457.5,41134 55449.3,41129.1 55441.5,41123.3 55434.3,41116.8 55427.9,41109.7 55422.1,41101.9 55417.1,41093.6 55413,41084.9 55409.8,41075.8 55407.4,41066.4 55406,41056.9 55405.5,41047.2 55405.5,40732.3 55406,40722.6 55407.4,40713.1 55409.8,40703.7 55413,40694.6 55417.1,40685.9 55422.1,40677.6 55427.9,40669.8 55434.3,40662.7 55441.5,40656.2 55449.3,40650.4 55457.5,40645.5 55466.3,40641.4 55475.4,40638.1 55484.7,40635.7 55494.3,40634.3 55503.9,40633.9 55996.1,40633.9 Z"
         id="path588" />
      <path
         style="fill:#FFFFFF; fill-opacity:1.0;  stroke:#FFFFFF; stroke-width:0; stroke-opacity:1;  stroke-linecap:round; stroke-linejoin:round;fill-rule:evenodd;"
         d="M 56005.7,41854.8 56015.3,41856.2 56024.6,41858.6 56033.7,41861.8 56042.5,41866 56050.7,41870.9 56058.5,41876.7 56065.7,41883.2 56072.1,41890.3 56077.9,41898.1 56082.9,41906.4 56087,41915.1 56090.2,41924.2 56092.6,41933.6 56094,41943.1 56094.5,41952.8 56094.5,42267.7 56094,42277.4 56092.6,42286.9 56090.2,42296.3 56087,42305.4 56082.9,42314.1 56077.9,42322.4 56072.1,42330.2 56065.7,42337.3 56058.5,42343.8 56050.7,42349.6 56042.5,42354.5 56033.7,42358.6 56024.6,42361.9 56015.3,42364.3 56005.7,42365.7 55996.1,42366.1 55503.9,42366.1 55494.3,42365.7 55484.7,42364.3 55475.4,42361.9 55466.3,42358.6 55457.5,42354.5 55449.3,42349.6 55441.5,42343.8 55434.3,42337.3 55427.9,42330.2 55422.1,42322.4 55417.1,42314.1 55413,42305.4 55409.8,42296.3 55407.4,42286.9 55406,42277.4 55405.5,42267.7 55405.5,41952.8 55406,41943.1 55407.4,41933.6 55409.8,41924.2 55413,41915.1 55417.1,41906.4 55422.1,41898.1 55427.9,41890.3 55434.3,41883.2 55441.5,41876.7 55449.3,41870.9 55457.5,41866 55466.3,41861.8 55475.4,41858.6 55484.7,41856.2 55494.3,41854.8 55503.9,41854.3 55996.1,41854.3 Z"
         id="path590" />
    </g>
    <g
       id="g594" />
    <g
       style="fill:#FFFFFF; fill-opacity:1.0;  stroke:#FFFFFF; stroke-width:0; stroke-opacity:1;  stroke-linecap:round; stroke-linejoin:round;"
       id="g600">
      <path
         style="fill:#FFFFFF; fill-opacity:1.0;  stroke:#FFFFFF; stroke-width:0; stroke-opacity:1;  stroke-linecap:round; stroke-linejoin:round;fill-rule:evenodd;"
         d="M 62255.7,37524.1 62265.3,37525.5 62274.6,37527.9 62283.7,37531.1 62292.5,37535.2 62300.7,37540.2 62308.5,37546 62315.7,37552.4 62322.1,37559.6 62327.9,37567.4 62332.9,37575.6 62337,37584.4 62340.2,37593.5 62342.6,37602.8 62344,37612.4 62344.5,37622 62344.5,37937 62344,37946.7 62342.6,37956.2 62340.2,37965.6 62337,37974.7 62332.9,37983.4 62327.9,37991.7 62322.1,37999.4 62315.7,38006.6 62308.5,38013.1 62300.7,38018.8 62292.5,38023.8 62283.7,38027.9 62274.6,38031.2 62265.3,38033.5 62255.7,38035 62246.1,38035.4 61753.9,38035.4 61744.3,38035 61734.7,38033.5 61725.4,38031.2 61716.3,38027.9 61707.5,38023.8 61699.3,38018.8 61691.5,38013.1 61684.3,38006.6 61677.9,37999.4 61672.1,37991.7 61667.1,37983.4 61663,37974.7 61659.8,37965.6 61657.4,37956.2 61656,37946.7 61655.5,37937 61655.5,37622 61656,37612.4 61657.4,37602.8 61659.8,37593.5 61663,37584.4 61667.1,37575.6 61672.1,37567.4 61677.9,37559.6 61684.3,37552.4 61691.5,37546 61699.3,37540.2 61707.5,37535.2 61716.3,37531.1 61725.4,37527.9 61734.7,37525.5 61744.3,37524.1 61753.9,37523.6 62246.1,37523.6 Z"
         id="path596" />
      <path
         style="fill:#FFFFFF; fill-opacity:1.0;  stroke:#FFFFFF; stroke-width:0; stroke-opacity:1;  stroke-linecap:round; stroke-linejoin:round;fill-rule:evenodd;"
         d="M 62255.7,38744.6 62265.3,38746 62274.6,38748.3 62283.7,38751.6 62292.5,38755.7 62300.7,38760.7 62308.5,38766.4 62315.7,38772.9 62322.1,38780.1 62327.9,38787.8 62332.9,38796.1 62337,38804.9 62340.2,38813.9 62342.6,38823.3 62344,38832.9 62344.5,38842.5 62344.5,39157.5 62344,39167.1 62342.6,39176.7 62340.2,39186.1 62337,39195.1 62332.9,39203.9 62327.9,39212.2 62322.1,39219.9 62315.7,39227.1 62308.5,39233.6 62300.7,39239.3 62292.5,39244.3 62283.7,39248.4 62274.6,39251.7 62265.3,39254 62255.7,39255.4 62246.1,39255.9 61753.9,39255.9 61744.3,39255.4 61734.7,39254 61725.4,39251.7 61716.3,39248.4 61707.5,39244.3 61699.3,39239.3 61691.5,39233.6 61684.3,39227.1 61677.9,39219.9 61672.1,39212.2 61667.1,39203.9 61663,39195.1 61659.8,39186.1 61657.4,39176.7 61656,39167.1 61655.5,39157.5 61655.5,38842.5 61656,38832.9 61657.4,38823.3 61659.8,38813.9 61663,38804.9 61667.1,38796.1 61672.1,38787.8 61677.9,38780.1 61684.3,38772.9 61691.5,38766.4 61699.3,38760.7 61707.5,38755.7 61716.3,38751.6 61725.4,38748.3 61734.7,38746 61744.3,38744.6 61753.9,38744.1 62246.1,38744.1 Z"
         id="path598" />
    </g>
    <g
       id="g602" />
    <g
       style="fill:#FFFFFF; fill-opacity:1.0;  stroke:#FFFFFF; stroke-width:0; stroke-opacity:1;  stroke-linecap:round; stroke-linejoin:round;"
       id="g608">
      <path
         style="fill:#FFFFFF; fill-opacity:1.0;  stroke:#FFFFFF; stroke-width:0; stroke-opacity:1;  stroke-linecap:round; stroke-linejoin:round;fill-rule:evenodd;"
         d="M 54255.7,38494.6 54265.3,38496 54274.6,38498.3 54283.7,38501.6 54292.5,38505.7 54300.7,38510.7 54308.5,38516.4 54315.7,38522.9 54322.1,38530.1 54327.9,38537.8 54332.9,38546.1 54337,38554.9 54340.2,38563.9 54342.6,38573.3 54344,38582.9 54344.5,38592.5 54344.5,38907.5 54344,38917.1 54342.6,38926.7 54340.2,38936.1 54337,38945.1 54332.9,38953.9 54327.9,38962.2 54322.1,38969.9 54315.7,38977.1 54308.5,38983.6 54300.7,38989.3 54292.5,38994.3 54283.7,38998.4 54274.6,39001.7 54265.3,39004 54255.7,39005.4 54246.1,39005.9 53753.9,39005.9 53744.3,39005.4 53734.7,39004 53725.4,39001.7 53716.3,38998.4 53707.5,38994.3 53699.3,38989.3 53691.5,38983.6 53684.3,38977.1 53677.9,38969.9 53672.1,38962.2 53667.1,38953.9 53663,38945.1 53659.8,38936.1 53657.4,38926.7 53656,38917.1 53655.5,38907.5 53655.5,38592.5 53656,38582.9 53657.4,38573.3 53659.8,38563.9 53663,38554.9 53667.1,38546.1 53672.1,38537.8 53677.9,38530.1 53684.3,38522.9 53691.5,38516.4 53699.3,38510.7 53707.5,38505.7 53716.3,38501.6 53725.4,38498.3 53734.7,38496 53744.3,38494.6 53753.9,38494.1 54246.1,38494.1 Z"
         id="path604" />
      <path
         style="fill:#FFFFFF; fill-opacity:1.0;  stroke:#FFFFFF; stroke-width:0; stroke-opacity:1;  stroke-linecap:round; stroke-linejoin:round;fill-rule:evenodd;"
         d="M 54255.7,37274.1 54265.3,37275.5 54274.6,37277.9 54283.7,37281.1 54292.5,37285.2 54300.7,37290.2 54308.5,37296 54315.7,37302.4 54322.1,37309.6 54327.9,37317.4 54332.9,37325.6 54337,37334.4 54340.2,37343.5 54342.6,37352.8 54344,37362.4 54344.5,37372 54344.5,37687 54344,37696.7 54342.6,37706.2 54340.2,37715.6 54337,37724.7 54332.9,37733.4 54327.9,37741.7 54322.1,37749.4 54315.7,37756.6 54308.5,37763.1 54300.7,37768.8 54292.5,37773.8 54283.7,37777.9 54274.6,37781.2 54265.3,37783.5 54255.7,37785 54246.1,37785.4 53753.9,37785.4 53744.3,37785 53734.7,37783.5 53725.4,37781.2 53716.3,37777.9 53707.5,37773.8 53699.3,37768.8 53691.5,37763.1 53684.3,37756.6 53677.9,37749.4 53672.1,37741.7 53667.1,37733.4 53663,37724.7 53659.8,37715.6 53657.4,37706.2 53656,37696.7 53655.5,37687 53655.5,37372 53656,37362.4 53657.4,37352.8 53659.8,37343.5 53663,37334.4 53667.1,37325.6 53672.1,37317.4 53677.9,37309.6 53684.3,37302.4 53691.5,37296 53699.3,37290.2 53707.5,37285.2 53716.3,37281.1 53725.4,37277.9 53734.7,37275.5 53744.3,37274.1 53753.9,37273.6 54246.1,37273.6 Z"
         id="path606" />
    </g>
    <g
       id="g610" />
    <g
       style="fill:#FFFFFF; fill-opacity:1.0;  stroke:#FFFFFF; stroke-width:0; stroke-opacity:1;  stroke-linecap:round; stroke-linejoin:round;"
       id="g620">
      <path
         style="fill:#FFFFFF; fill-opacity:1.0;  stroke:#FFFFFF; stroke-width:0; stroke-opacity:1;  stroke-linecap:round; stroke-linejoin:round;fill-rule:evenodd;"
         d="M 60129.9,43141.7 60129.9,42629.9 60740.2,42629.9 60740.2,43141.7 Z"
         id="path612" />
      <path
         style="fill:#FFFFFF; fill-opacity:1.0;  stroke:#FFFFFF; stroke-width:0; stroke-opacity:1;  stroke-linecap:round; stroke-linejoin:round;fill-rule:evenodd;"
         d="M 60129.9,41370.1 60129.9,40858.3 60740.2,40858.3 60740.2,41370.1 Z"
         id="path614" />
      <path
         style="fill:#FFFFFF; fill-opacity:1.0;  stroke:#FFFFFF; stroke-width:0; stroke-opacity:1;  stroke-linecap:round; stroke-linejoin:round;fill-rule:evenodd;"
         d="M 63259.8,41370.1 63259.8,40858.3 63870.1,40858.3 63870.1,41370.1 Z"
         id="path616" />
      <path
         style="fill:#FFFFFF; fill-opacity:1.0;  stroke:#FFFFFF; stroke-width:0; stroke-opacity:1;  stroke-linecap:round; stroke-linejoin:round;fill-rule:evenodd;"
         d="M 63259.8,43141.7 63259.8,42629.9 63870.1,42629.9 63870.1,43141.7 Z"
         id="path618" />
    </g>
    <g
       id="g622" />
    <g
       style="fill:#FFFFFF; fill-opacity:1.0;  stroke:#FFFFFF; stroke-width:0; stroke-opacity:1;  stroke-linecap:round; stroke-linejoin:round;"
       id="g626">
      <circle
         cx="59000"
         cy="40500"
         r="393.701"
         id="circle624" />
    </g>
    <g
       style="fill:#FFFFFF; fill-opacity:1.0;  stroke:#FFFFFF; stroke-width:39.3701; stroke-opacity:1;  stroke-linecap:round; stroke-linejoin:round;"
       id="g628" />
    <g
       style="fill:#FFFFFF; fill-opacity:1.0;  stroke:#FFFFFF; stroke-width:0; stroke-opacity:1;  stroke-linecap:round; stroke-linejoin:round;"
       id="g632">
      <circle
         cx="51000"
         cy="40000"
         r="393.701"
         id="circle630" />
    </g>
    <g
       style="fill:#FFFFFF; fill-opacity:1.0;  stroke:#FFFFFF; stroke-width:39.3701; stroke-opacity:1;  stroke-linecap:round; stroke-linejoin:round;"
       id="g634" />
    <g
       style="fill:#FFFFFF; fill-opacity:1.0;  stroke:#FFFFFF; stroke-width:0; stroke-opacity:1;  stroke-linecap:round; stroke-linejoin:round;"
       id="g638">
      <circle
         cx="52000"
         cy="40750"
         r="393.701"
         id="circle636" />
    </g>
    <g
       style="fill:#FFFFFF; fill-opacity:1.0;  stroke:#FFFFFF; stroke-width:39.3701; stroke-opacity:1;  stroke-linecap:round; stroke-linejoin:round;"
       id="g640" />
    <g
       style="fill:#FFFFFF; fill-opacity:1.0;  stroke:#FFFFFF; stroke-width:0; stroke-opacity:1;  stroke-linecap:round; stroke-linejoin:round;"
       id="g644">
      <circle
         cx="46750"
         cy="40000"
         r="393.701"
         id="circle642" />
    </g>
    <g
       style="fill:#FFFFFF; fill-opacity:1.0;  stroke:#FFFFFF; stroke-width:39.3701; stroke-opacity:1;  stroke-linecap:round; stroke-linejoin:round;"
       id="g646" />
    <g
       style="fill:#FFFFFF; fill-opacity:1.0;  stroke:#FFFFFF; stroke-width:0; stroke-opacity:1;  stroke-linecap:round; stroke-linejoin:round;"
       id="g650">
      <circle
         cx="57000"
         cy="40000"
         r="393.701"
         id="circle648" />
    </g>
    <g
       style="fill:#FFFFFF; fill-opacity:1.0;  stroke:#FFFFFF; stroke-width:39.3701; stroke-opacity:1;  stroke-linecap:round; stroke-linejoin:round;"
       id="g652" />
    <g
       style="fill:#FFFFFF; fill-opacity:1.0;  stroke:#FFFFFF; stroke-width:0; stroke-opacity:1;  stroke-linecap:round; stroke-linejoin:round;"
       id="g656">
      <circle
         cx="52500"
         cy="38750"
         r="393.701"
         id="circle654" />
    </g>
    <g
       style="fill:#FFFFFF; fill-opacity:1.0;  stroke:#FFFFFF; stroke-width:39.3701; stroke-opacity:1;  stroke-linecap:round; stroke-linejoin:round;"
       id="g658" />
    <g
       id="g660" />
    <g
       style="fill:#FFFFFF; fill-opacity:1.0;  stroke:#FFFFFF; stroke-width:39.3701; stroke-opacity:1;  stroke-linecap:round; stroke-linejoin:round;"
       id="g662" />
    <g
       style="fill:#FFFFFF; fill-opacity:1.0;  stroke:#FFFFFF; stroke-width:314.961; stroke-opacity:1;  stroke-linecap:round; stroke-linejoin:round;"
       id="g664" />
    <g
       style="fill:#FFFFFF; fill-opacity:0.0;  stroke:#FFFFFF; stroke-width:314.961; stroke-opacity:1;  stroke-linecap:round; stroke-linejoin:round;"
       id="g808">
      <path
         d="M66000 40450 L63564 42885 "
         id="path666" />
      <path
         d="M66000 40000 L66000 40450 "
         id="path668" />
      <path
         d="M63564 42885 L60435 42885 "
         id="path670" />
      <path
         d="M49000 42000 L47500 42000 "
         id="path672" />
      <path
         d="M47122 42377 L47500 42000 "
         id="path674" />
      <path
         d="M45000 42377 L47122 42377 "
         id="path676" />
      <path
         d="M55139 42720 L55750 42110 "
         id="path678" />
      <path
         d="M53451 42720 L55139 42720 "
         id="path680" />
      <path
         d="M52629 41897 L53451 42720 "
         id="path682" />
      <path
         d="M51570 41897 L52629 41897 "
         id="path684" />
      <path
         d="M57500 41874 L56625 41874 "
         id="path686" />
      <path
         d="M56389 42110 L55750 42110 "
         id="path688" />
      <path
         d="M56625 41874 L56389 42110 "
         id="path690" />
      <path
         d="M57500 42500 L57500 41874 "
         id="path692" />
      <path
         d="M57885 42885 L57500 42500 "
         id="path694" />
      <path
         d="M60435 42885 L57885 42885 "
         id="path696" />
      <path
         d="M49000 42000 L49500 42000 "
         id="path698" />
      <path
         d="M51570 41897 L49602 41897 "
         id="path700" />
      <path
         d="M49000 41000 L45000 41000 "
         id="path702" />
      <path
         d="M58909 40409 L59000 40500 "
         id="path704" />
      <path
         d="M58909 38500 L58909 40409 "
         id="path706" />
      <path
         d="M50000 40000 L49000 41000 "
         id="path708" />
      <path
         d="M51000 40000 L50000 40000 "
         id="path710" />
      <path
         d="M54000 40250 L54000 40889 "
         id="path712" />
      <path
         d="M55909 38500 L55909 39090 "
         id="path714" />
      <path
         d="M55909 39090 L55500 39500 "
         id="path716" />
      <path
         d="M54750 39500 L54000 40250 "
         id="path718" />
      <path
         d="M55500 39500 L54750 39500 "
         id="path720" />
      <path
         d="M52139 40889 L52000 40750 "
         id="path722" />
      <path
         d="M54000 40889 L52139 40889 "
         id="path724" />
      <path
         d="M46750 40000 L46250 40000 "
         id="path726" />
      <path
         d="M45872 39622 L46250 40000 "
         id="path728" />
      <path
         d="M45000 39622 L45872 39622 "
         id="path730" />
      <path
         d="M57090 39909 L57000 40000 "
         id="path732" />
      <path
         d="M57090 38874 L57090 39909 "
         id="path734" />
      <path
         d="M52500 38750 L54000 38750 "
         id="path736" />
      <path
         d="M52500 38750 L51000 38750 "
         id="path738" />
      <path
         d="M50250 38000 L51000 38750 "
         id="path740" />
      <path
         d="M49000 38000 L50250 38000 "
         id="path742" />
      <path
         d="M66000 38622 L63872 38622 "
         id="path744" />
      <path
         d="M63029 37779 L63872 38622 "
         id="path746" />
      <path
         d="M62000 37779 L63029 37779 "
         id="path748" />
      <path
         d="M60090 38125 L60624 38125 "
         id="path750" />
      <path
         d="M60970 37779 L62000 37779 "
         id="path752" />
      <path
         d="M60624 38125 L60970 37779 "
         id="path754" />
      <path
         d="M57090 38125 L57624 38125 "
         id="path756" />
      <path
         d="M57624 38125 L58000 37750 "
         id="path758" />
      <path
         d="M59714 37750 L60090 38125 "
         id="path760" />
      <path
         d="M58000 37750 L59714 37750 "
         id="path762" />
      <path
         d="M57090 38125 L56625 38125 "
         id="path764" />
      <path
         d="M56029 37529 L54000 37529 "
         id="path766" />
      <path
         d="M56625 38125 L56029 37529 "
         id="path768" />
      <path
         d="M60049 41500 L60435 41114 "
         id="path770" />
      <path
         d="M58681 41500 L60049 41500 "
         id="path772" />
      <path
         d="M60090 38874 L60090 39590 "
         id="path774" />
      <path
         d="M60435 39935 L60090 39590 "
         id="path776" />
      <path
         d="M60435 41114 L60435 39935 "
         id="path778" />
      <path
         d="M61370 39000 L60435 39935 "
         id="path780" />
      <path
         d="M62000 39000 L61370 39000 "
         id="path782" />
      <path
         d="M63564 41114 L62864 41114 "
         id="path784" />
      <path
         d="M62864 41114 L60435 41114 "
         id="path786" />
      <path
         d="M57500 41125 L56625 41125 "
         id="path788" />
      <path
         d="M56389 40889 L55750 40889 "
         id="path790" />
      <path
         d="M56625 41125 L56389 40889 "
         id="path792" />
      <path
         d="M54529 42110 L55750 40889 "
         id="path794" />
      <path
         d="M54000 42110 L54529 42110 "
         id="path796" />
      <path
         d="M46244 38244 L45000 38244 "
         id="path798" />
      <path
         d="M48000 40000 L46244 38244 "
         id="path800" />
      <path
         d="M49000 40000 L48000 40000 "
         id="path802" />
      <path
         d="M46866 36866 L45000 36866 "
         id="path804" />
      <path
         d="M49000 39000 L46866 36866 "
         id="path806" />
    </g>
    <g
       id="g810" />
    <g
       style="fill:#FFFFFF; fill-opacity:0.0;  stroke:#FFFFFF; stroke-width:314.961; stroke-opacity:1;  stroke-linecap:round; stroke-linejoin:round;"
       id="g838">
      <g
         id="g812" />
      <g
         style="fill:#FFFFFF; fill-opacity:1.0;  stroke:#FFFFFF; stroke-width:100; stroke-opacity:1;  stroke-linecap:round; stroke-linejoin:round;"
         id="g836">
        <path
           style="fill:#FFFFFF; fill-opacity:1.0;  stroke:#FFFFFF; stroke-width:100; stroke-opacity:1;  stroke-linecap:round; stroke-linejoin:round;fill-rule:evenodd;"
           d="M 51324.8,35363.8 51215.6,35527.3 51140.3,35708.9 51102,35901.7 51102,36098.3 51140.3,36291.1 51215.6,36472.7 51324.8,36636.2 51463.8,36775.2 51627.3,36884.4 51808.9,36959.7 52001.7,36998 52198.3,36998 52391.1,36959.7 52572.7,36884.4 52736.2,36775.2 52875.2,36636.2 52984.4,36472.7 53059.7,36291.1 53098,36098.3 53098,35901.7 53059.7,35708.9 52984.4,35527.3 52875.2,35363.8 52771.3,35259.8 61428.7,35259.8 61324.8,35363.8 61215.6,35527.3 61140.3,35708.9 61102,35901.7 61102,36098.3 61140.3,36291.1 61215.6,36472.7 61324.8,36636.2 61463.8,36775.2 61627.3,36884.4 61808.9,36959.7 62001.7,36998 62198.3,36998 62391.1,36959.7 62572.7,36884.4 62736.2,36775.2 62875.2,36636.2 62984.4,36472.7 63059.7,36291.1 63098,36098.3 63098,35901.7 63059.7,35708.9 62984.4,35527.3 62875.2,35363.8 62771.3,35259.8 67740.2,35259.8 67740.2,43740.2 52771.3,43740.2 52875.2,43636.2 52984.4,43472.7 53059.7,43291.1 53098,43098.3 53098,42942.8 53149.7,42994.5 53162.4,43010 53178,43022.8 53224.5,43060.9 53250.9,43075 53295.3,43098.8 53372.1,43122.1 53432,43128 53432,43128 53452,43129.9 53472,43128 55119.7,43128 55139.8,43129.9 55159.8,43128 55159.8,43128 55219.6,43122.1 55296.4,43098.8 55367.2,43060.9 55429.3,43010 55442,42994.5 55819.1,42617.4 55996.1,42617.4 56064.3,42610.6 56129.9,42590.7 56190.3,42558.4 56239.9,42517.7 56369.8,42517.7 56389.8,42519.7 56409.8,42517.7 56409.8,42517.7 56469.6,42511.8 56546.5,42488.5 56617.2,42450.7 56679.3,42399.8 56692,42384.2 56794.8,42281.5 57092.5,42281.5 57092.5,42480 57090.5,42500 57092.5,42520 57092.5,42520 57098.4,42579.9 57121.7,42656.7 57159.6,42727.5 57210.5,42789.5 57226,42802.3 57583.5,43159.8 57596.3,43175.4 57611.8,43188.1 57658.3,43226.3 57696.2,43246.5 57729.1,43264.1 57805.9,43287.4 57865.8,43293.3 57865.8,43293.3 57885.8,43295.3 57905.8,43293.3 59930.9,43293.3 59952.3,43319.4 59990.4,43350.6 60033.8,43373.8 60080.9,43388.1 60129.9,43392.9 60740.2,43392.9 60789.2,43388.1 60836.3,43373.8 60879.7,43350.6 60917.8,43319.4 60939.2,43293.3 63060.8,43293.3 63082.2,43319.4 63120.3,43350.6 63163.7,43373.8 63210.8,43388.1 63259.8,43392.9 63870.1,43392.9 63919.1,43388.1 63966.2,43373.8 64009.6,43350.6 64047.7,43319.4 64079,43281.3 64102.2,43237.9 64116.5,43190.7 64121.3,43141.7 64121.3,42905.8 66274,40753.1 66289.5,40740.3 66303.2,40723.7 66472.4,40723.7 66521.4,40718.8 66568.6,40704.5 66612,40681.3 66650.1,40650.1 66681.3,40612 66704.5,40568.6 66718.8,40521.4 66723.7,40472.4 66723.7,39527.6 66718.8,39478.6 66704.5,39431.4 66681.3,39388 66650.1,39349.9 66612,39318.7 66568.6,39295.5 66521.4,39281.2 66472.4,39276.3 66308.2,39276.3 66342.2,39262.3 66460.5,39183.2 66561.2,39082.6 66640.2,38964.3 66694.7,38832.8 66722.4,38693.2 66722.4,38550.9 66694.7,38411.3 66640.2,38279.8 66561.2,38161.5 66460.5,38060.9 66342.2,37981.8 66210.7,37927.4 66071.2,37899.6 65928.8,37899.6 65789.3,37927.4 65657.8,37981.8 65539.5,38060.9 65438.8,38161.5 65403.4,38214.6 64040.8,38214.6 63331.8,37505.6 63319.1,37490 63257,37439.1 63186.2,37401.2 63109.4,37377.9 63049.5,37372 63049.5,37372 63029.5,37370.1 63009.5,37372 62489.9,37372 62440.3,37331.3 62379.9,37299 62314.3,37279.1 62246.1,37272.4 61753.9,37272.4 61685.7,37279.1 61620.1,37299 61559.7,37331.3 61510.1,37372 60990.5,37372 60970.5,37370.1 60950.5,37372 60950.5,37372 60890.6,37377.9 60813.8,37401.2 60787.4,37415.4 60743,37439.1 60700.2,37474.2 60680.9,37490 60668.2,37505.5 60456.4,37717.3 60258.1,37717.3 60016.9,37476 60004.1,37460.5 59942,37409.6 59871.3,37371.7 59794.4,37348.4 59734.6,37342.5 59734.6,37342.5 59714.6,37340.5 59694.6,37342.5 58020,37342.5 58000,37340.5 57980,37342.5 57980,37342.5 57920.1,37348.4 57843.3,37371.7 57831.7,37377.9 57772.5,37409.6 57738.1,37437.8 57710.5,37460.5 57697.7,37476 57456.4,37717.3 56793.6,37717.3 56331.8,37255.6 56319.1,37240 56257,37189.1 56186.2,37151.2 56109.4,37127.9 56049.5,37122 56049.5,37122 56029.5,37120.1 56009.5,37122 54489.9,37122 54440.3,37081.3 54379.9,37049 54314.3,37029.1 54246.1,37022.4 53753.9,37022.4 53685.7,37029.1 53620.1,37049 53559.7,37081.3 53506.7,37124.8 53463.2,37177.8 53430.9,37238.2 53411,37303.8 53404.3,37372 53404.3,37687 53411,37755.2 53430.9,37820.8 53463.2,37881.3 53506.7,37934.2 53559.7,37977.7 53620.1,38010 53685.7,38029.9 53753.9,38036.6 54246.1,38036.6 54314.3,38029.9 54379.9,38010 54440.3,37977.7 54489.9,37937 55860.7,37937 56015,38091.3 55917.2,38091.3 55909.4,38090.5 55901.7,38091.3 55535.4,38091.3 55486.4,38096.1 55439.3,38110.4 55395.9,38133.6 55357.8,38164.9 55326.6,38203 55303.3,38246.4 55289.1,38293.5 55284.2,38342.5 55284.2,38657.5 55289.1,38706.5 55303.3,38753.6 55326.6,38797 55357.8,38835.1 55395.9,38866.4 55439.3,38889.6 55486.4,38903.9 55502,38905.4 55502,38921.8 55331.2,39092.5 54770,39092.5 54750,39090.5 54730,39092.5 54730,39092.5 54670.1,39098.4 54593.3,39121.7 54560.4,39139.3 54522.5,39159.6 54493.7,39183.2 54460.5,39210.5 54447.7,39226 53726,39947.7 53710.5,39960.5 53659.6,40022.5 53621.7,40093.3 53598.4,40170.1 53592.5,40230 53592.5,40230 53590.5,40250 53592.5,40270 53592.5,40424 53559.7,40441.6 53510.1,40482.3 52585.8,40482.3 52570.4,40445.1 52500,40339.7 52410.3,40250 52304.9,40179.6 52187.8,40131 52063.4,40106.3 51936.6,40106.3 51812.2,40131 51695.1,40179.6 51594.5,40246.8 51619,40187.8 51643.7,40063.4 51643.7,39936.6 51619,39812.2 51570.4,39695.1 51500,39589.7 51410.3,39500 51304.9,39429.6 51187.8,39381 51063.4,39356.3 50936.6,39356.3 50812.2,39381 50695.1,39429.6 50589.7,39500 50500,39589.7 50498.1,39592.5 50020,39592.5 50000,39590.5 49980,39592.5 49980,39592.5 49920.1,39598.4 49843.3,39621.7 49842.7,39622 49772.5,39659.6 49745.2,39682 49710.5,39710.5 49697.7,39726 49567.5,39856.2 49562.2,39829.5 49518.1,39723.1 49454.1,39627.3 49372.7,39545.9 49304,39500 49372.7,39454.1 49454.1,39372.7 49518.1,39276.9 49562.2,39170.5 49584.6,39057.6 49584.6,38942.4 49562.2,38829.5 49518.1,38723.1 49454.1,38627.3 49372.7,38545.9 49304,38500 49372.7,38454.1 49419.3,38407.5 50081.2,38407.5 50697.7,39024 50710.5,39039.5 50726,39052.3 50772.5,39090.4 50793.6,39101.7 50843.3,39128.3 50920.1,39151.6 50980,39157.5 50980,39157.5 51000,39159.5 51020,39157.5 51998.1,39157.5 52000,39160.3 52089.7,39250 52195.1,39320.4 52312.2,39369 52436.6,39393.7 52563.4,39393.7 52687.8,39369 52804.9,39320.4 52910.3,39250 53000,39160.3 53001.9,39157.5 53510.1,39157.5 53559.7,39198.2 53620.1,39230.5 53685.7,39250.4 53753.9,39257.1 54246.1,39257.1 54314.3,39250.4 54379.9,39230.5 54440.3,39198.2 54493.3,39154.7 54536.8,39101.7 54569.1,39041.3 54589,38975.7 54595.7,38907.5 54595.7,38592.5 54589,38524.3 54569.1,38458.7 54536.8,38398.3 54493.3,38345.3 54440.3,38301.8 54379.9,38269.5 54314.3,38249.6 54246.1,38242.9 53753.9,38242.9 53685.7,38249.6 53620.1,38269.5 53559.7,38301.8 53510.1,38342.5 53001.9,38342.5 53000,38339.7 52910.3,38250 52804.9,38179.6 52687.8,38131 52563.4,38106.3 52436.6,38106.3 52312.2,38131 52195.1,38179.6 52089.7,38250 52000,38339.7 51998.1,38342.5 51168.8,38342.5 50552.3,37726 50539.5,37710.5 50477.5,37659.6 50406.7,37621.7 50329.9,37598.4 50270,37592.5 50270,37592.5 50250,37590.5 50230,37592.5 49419.3,37592.5 49402.2,37575.4 49430.8,37566.7 49474.2,37543.5 49512.3,37512.3 49543.5,37474.2 49566.7,37430.8 49581,37383.7 49585.9,37334.6 49585.9,36665.4 49581,36616.3 49566.7,36569.2 49543.5,36525.8 49512.3,36487.7 49474.2,36456.5 49430.8,36433.3 49383.7,36419 49334.6,36414.1 48665.4,36414.1 48616.3,36419 48569.2,36433.3 48525.8,36456.5 48487.7,36487.7 48456.5,36525.8 48433.3,36569.2 48419,36616.3 48414.1,36665.4 48414.1,37334.6 48419,37383.7 48433.3,37430.8 48456.5,37474.2 48487.7,37512.3 48525.8,37543.5 48569.2,37566.7 48597.8,37575.4 48545.9,37627.3 48481.9,37723.1 48437.8,37829.5 48432.5,37856.2 47168.4,36592.2 47155.7,36576.6 47093.6,36525.7 47022.8,36487.9 46946,36464.6 46886.2,36458.7 46886.2,36458.7 46866.1,36456.7 46846.1,36458.7 45596.6,36458.7 45561.2,36405.6 45460.5,36305 45342.2,36225.9 45210.7,36171.5 45071.2,36143.7 44928.8,36143.7 44789.3,36171.5 44657.8,36225.9 44539.5,36305 44438.8,36405.6 44359.8,36523.9 44305.3,36655.4 44277.6,36795 44277.6,36937.3 44305.3,37076.9 44359.8,37208.3 44438.8,37326.7 44539.5,37427.3 44657.8,37506.4 44775.5,37555.1 44657.8,37603.9 44539.5,37682.9 44438.8,37783.6 44359.8,37901.9 44305.3,38033.4 44277.6,38172.9 44277.6,38315.2 44305.3,38454.8 44359.8,38586.3 44438.8,38704.6 44539.5,38805.3 44657.8,38884.3 44775.5,38933.1 44657.8,38981.8 44539.5,39060.9 44438.8,39161.5 44359.8,39279.8 44305.3,39411.3 44277.6,39550.9 44277.6,39693.2 44305.3,39832.8 44359.8,39964.3 44438.8,40082.6 44539.5,40183.2 44657.8,40262.3 44775.5,40311 44657.8,40359.8 44539.5,40438.8 44438.8,40539.5 44359.8,40657.8 44305.3,40789.3 44277.6,40928.8 44277.6,41071.2 44305.3,41210.7 44359.8,41342.2 44438.8,41460.5 44539.5,41561.2 44657.8,41640.2 44691.8,41654.3 44527.6,41654.3 44478.6,41659.1 44431.4,41673.4 44388,41696.6 44349.9,41727.9 44318.7,41765.9 44295.5,41809.4 44281.2,41856.5 44276.3,41905.5 44276.3,42850.4 44281.2,42899.4 44295.5,42946.5 44318.7,42990 44349.9,43028 44388,43059.3 44431.4,43082.5 44478.6,43096.8 44527.6,43101.6 45472.4,43101.6 45521.4,43096.8 45568.6,43082.5 45612,43059.3 45650.1,43028 45681.3,42990 45704.5,42946.5 45718.8,42899.4 45723.7,42850.4 45723.7,42785.4 47102,42785.4 47122,42787.4 47142.1,42785.4 47142.1,42785.4 47201.9,42779.5 47278.7,42756.2 47349.5,42718.4 47411.6,42667.5 47424.3,42651.9 47668.8,42407.5 48580.7,42407.5 48627.3,42454.1 48723.1,42518.1 48829.5,42562.2 48942.4,42584.6 49057.6,42584.6 49170.5,42562.2 49276.9,42518.1 49372.7,42454.1 49419.3,42407.5 49520,42407.5 49579.9,42401.6 49656.7,42378.3 49727.5,42340.4 49770.5,42305.1 51383.5,42305.1 51324.8,42363.8 51215.6,42527.3 51140.3,42708.9 51102,42901.7 51102,43098.3 51140.3,43291.1 51215.6,43472.7 51324.8,43636.2 51428.7,43740.2 43259.8,43740.2 43259.8,35259.8 51428.7,35259.8 Z"
           id="path814" />
        <path
           style="fill:#FFFFFF; fill-opacity:1.0;  stroke:#FFFFFF; stroke-width:100; stroke-opacity:1;  stroke-linecap:round; stroke-linejoin:round;fill-rule:evenodd;"
           d="M 61559.7,38227.7 61620.1,38260 61685.7,38279.9 61753.9,38286.6 62246.1,38286.6 62314.3,38279.9 62379.9,38260 62440.3,38227.7 62489.9,38187 62860.7,38187 63569.8,38896 63582.5,38911.6 63598.1,38924.3 63644.6,38962.5 63672.6,38977.5 63715.4,39000.3 63792.2,39023.6 63852,39029.5 63852,39029.5 63872,39031.5 63892.1,39029.5 65403.4,39029.5 65438.8,39082.6 65539.5,39183.2 65657.8,39262.3 65691.8,39276.3 65527.6,39276.3 65478.6,39281.2 65431.4,39295.5 65388,39318.7 65349.9,39349.9 65318.7,39388 65295.5,39431.4 65281.2,39478.6 65276.3,39527.6 65276.3,40472.4 65281.2,40521.4 65295.5,40568.6 65299.1,40575.4 63495.8,42378.7 63259.8,42378.7 63210.8,42383.5 63163.7,42397.8 63120.3,42421 63082.2,42452.3 63060.8,42478.3 60939.2,42478.3 60917.8,42452.3 60879.7,42421 60836.3,42397.8 60789.2,42383.5 60740.2,42378.7 60129.9,42378.7 60080.9,42383.5 60033.8,42397.8 59990.4,42421 59952.3,42452.3 59930.9,42478.3 58054.6,42478.3 57907.5,42331.2 57907.5,42279.4 57923,42277.9 57970.1,42263.6 58013.6,42240.4 58051.6,42209.1 58082.9,42171.1 58106.1,42127.6 58120.4,42080.5 58125.2,42031.5 58125.2,41830 58129.5,41835.1 58167.5,41866.4 58211,41889.6 58258.1,41903.9 58307.1,41908.7 59055.1,41908.7 59067.4,41907.5 60029.2,41907.5 60049.2,41909.5 60069.2,41907.5 60069.2,41907.5 60129.1,41901.6 60205.9,41878.3 60276.7,41840.4 60338.7,41789.5 60351.5,41774 60504.2,41621.3 60740.2,41621.3 60789.2,41616.5 60836.3,41602.2 60879.7,41579 60917.8,41547.7 60939.2,41521.7 63060.8,41521.7 63082.2,41547.7 63120.3,41579 63163.7,41602.2 63210.8,41616.5 63259.8,41621.3 63870.1,41621.3 63919.1,41616.5 63966.2,41602.2 64009.6,41579 64047.7,41547.7 64079,41509.6 64102.2,41466.2 64116.5,41419.1 64121.3,41370.1 64121.3,40858.3 64116.5,40809.3 64102.2,40762.1 64079,40718.7 64047.7,40680.6 64009.6,40649.4 63966.2,40626.2 63919.1,40611.9 63870.1,40607.1 63259.8,40607.1 63210.8,40611.9 63163.7,40626.2 63120.3,40649.4 63082.2,40680.6 63060.8,40706.7 60939.2,40706.7 60917.8,40680.6 60879.7,40649.4 60842.5,40629.5 60842.5,40103.8 61525.9,39420.5 61559.7,39448.2 61620.1,39480.5 61685.7,39500.4 61753.9,39507.1 62246.1,39507.1 62314.3,39500.4 62379.9,39480.5 62440.3,39448.2 62493.3,39404.7 62536.8,39351.7 62569.1,39291.3 62589,39225.7 62595.7,39157.5 62595.7,38842.5 62589,38774.3 62569.1,38708.7 62536.8,38648.3 62493.3,38595.3 62440.3,38551.8 62379.9,38519.5 62314.3,38499.6 62246.1,38492.9 61753.9,38492.9 61685.7,38499.6 61620.1,38519.5 61559.7,38551.8 61510.1,38592.5 61390.1,38592.5 61370.1,38590.5 61350.1,38592.5 61350.1,38592.5 61290.2,38598.4 61213.4,38621.7 61202.9,38627.3 61142.6,38659.6 61109.6,38686.6 61080.6,38710.5 61067.8,38726 60709.9,39083.9 60710.9,39080.5 60715.8,39031.5 60715.8,38716.5 60710.9,38667.5 60696.7,38620.4 60673.4,38577 60642.2,38538.9 60636.5,38534.2 60644,38533.5 60644,38533.5 60703.9,38527.6 60780.7,38504.3 60851.5,38466.4 60913.5,38415.5 60926.3,38400 61139.3,38187 61510.1,38187 Z"
           id="path816" />
        <path
           style="fill:#FFFFFF; fill-opacity:1.0;  stroke:#FFFFFF; stroke-width:100; stroke-opacity:1;  stroke-linecap:round; stroke-linejoin:round;fill-rule:evenodd;"
           d="M 55154.3,42129.7 54971,42313 54903,42313 55154.3,42061.7 Z"
           id="path818" />
        <path
           style="fill:#FFFFFF; fill-opacity:1.0;  stroke:#FFFFFF; stroke-width:100; stroke-opacity:1;  stroke-linecap:round; stroke-linejoin:round;fill-rule:evenodd;"
           d="M 58357.8,38164.9 58326.6,38203 58303.3,38246.4 58289.1,38293.5 58284.2,38342.5 58284.2,38657.5 58289.1,38706.5 58303.3,38753.6 58326.6,38797 58357.8,38835.1 58395.9,38866.4 58439.3,38889.6 58486.4,38903.9 58502,38905.4 58502,40087.7 58500,40089.7 58429.6,40195.1 58381,40312.2 58356.3,40436.6 58356.3,40563.4 58381,40687.8 58429.6,40804.9 58500,40910.3 58589.7,41000 58695.1,41070.4 58745.5,41091.3 58307.1,41091.3 58258.1,41096.1 58211,41110.4 58167.5,41133.6 58129.5,41164.9 58125.2,41170 58125.2,40968.5 58120.4,40919.5 58106.1,40872.4 58082.9,40828.9 58051.6,40790.9 58013.6,40759.6 57970.1,40736.4 57923,40722.1 57874,40717.3 57126,40717.3 57113.7,40718.5 56794.8,40718.5 56692,40615.8 56679.3,40600.2 56617.2,40549.3 56546.5,40511.5 56469.6,40488.2 56409.8,40482.3 56409.8,40482.3 56389.8,40480.3 56369.8,40482.3 56239.9,40482.3 56190.3,40441.6 56129.9,40409.3 56064.3,40389.4 55996.1,40382.6 55503.9,40382.6 55435.7,40389.4 55370.1,40409.3 55309.7,40441.6 55256.7,40485.1 55213.2,40538 55180.9,40598.5 55161,40664.1 55154.3,40732.3 55154.3,40909.2 54415,41648.5 54379.9,41629.7 54314.3,41609.8 54246.1,41603.1 53753.9,41603.1 53685.7,41609.8 53620.1,41629.7 53559.7,41662 53506.7,41705.5 53463.2,41758.5 53430.9,41819 53411,41884.5 53404.3,41952.8 53404.3,42096.5 52931.4,41623.7 52918.7,41608.1 52856.6,41557.2 52785.8,41519.4 52709,41496.1 52649.1,41490.2 52649.1,41490.2 52629.1,41488.2 52609.1,41490.2 49582.3,41490.2 49522.5,41496.1 49445.7,41519.4 49380.8,41554 49372.7,41545.9 49304,41500 49372.7,41454.1 49454.1,41372.7 49518.1,41276.9 49562.2,41170.5 49584.6,41057.6 49584.6,40991.6 50168.8,40407.5 50498.1,40407.5 50500,40410.3 50589.7,40500 50695.1,40570.4 50812.2,40619 50936.6,40643.7 51063.4,40643.7 51187.8,40619 51304.9,40570.4 51405.5,40503.2 51381,40562.2 51356.3,40686.6 51356.3,40813.4 51381,40937.8 51429.6,41054.9 51500,41160.3 51589.7,41250 51695.1,41320.4 51812.2,41369 51936.6,41393.7 52063.4,41393.7 52187.8,41369 52304.9,41320.4 52339.6,41297.2 53510.1,41297.2 53559.7,41338 53620.1,41370.3 53685.7,41390.2 53753.9,41396.9 54246.1,41396.9 54314.3,41390.2 54379.9,41370.3 54440.3,41338 54493.3,41294.5 54536.8,41241.5 54569.1,41181 54589,41115.5 54595.7,41047.2 54595.7,40732.3 54589,40664.1 54569.1,40598.5 54536.8,40538 54493.3,40485.1 54440.3,40441.6 54407.5,40424 54407.5,40418.8 54918.8,39907.5 55480,39907.5 55500,39909.5 55520,39907.5 55520,39907.5 55579.9,39901.6 55656.7,39878.3 55727.5,39840.4 55789.5,39789.5 55802.3,39774 56183.4,39392.8 56199,39380.1 56222.2,39351.7 56249.9,39318 56279,39263.6 56287.7,39247.2 56311,39170.4 56316.9,39110.6 56316.9,39110.6 56318.9,39090.6 56316.9,39070.5 56316.9,38905.4 56332.5,38903.9 56379.6,38889.6 56423,38866.4 56461.1,38835.1 56465.3,38830 56465.3,39031.5 56470.2,39080.5 56484.4,39127.6 56507.7,39171.1 56538.9,39209.1 56577,39240.4 56620.4,39263.6 56667.5,39277.9 56683.1,39279.4 56683.1,39437.6 56589.7,39500 56500,39589.7 56429.6,39695.1 56381,39812.2 56356.3,39936.6 56356.3,40063.4 56381,40187.8 56429.6,40304.9 56500,40410.3 56589.7,40500 56695.1,40570.4 56812.2,40619 56936.6,40643.7 57063.4,40643.7 57187.8,40619 57304.9,40570.4 57410.3,40500 57500,40410.3 57570.4,40304.9 57619,40187.8 57643.7,40063.4 57643.7,39936.6 57619,39812.2 57570.4,39695.1 57500,39589.7 57498,39587.7 57498,39279.4 57513.6,39277.9 57560.7,39263.6 57604.1,39240.4 57642.2,39209.1 57673.4,39171.1 57696.7,39127.6 57710.9,39080.5 57715.8,39031.5 57715.8,38716.5 57710.9,38667.5 57696.7,38620.4 57673.4,38577 57642.2,38538.9 57636.5,38534.2 57644,38533.5 57644,38533.5 57703.9,38527.6 57780.7,38504.3 57851.5,38466.4 57913.5,38415.5 57926.3,38400 58168.8,38157.5 58366.8,38157.5 Z"
           id="path820" />
        <path
           style="fill:#FFFFFF; fill-opacity:1.0;  stroke:#FFFFFF; stroke-width:100; stroke-opacity:1;  stroke-linecap:round; stroke-linejoin:round;fill-rule:evenodd;"
           d="M 48627.3,41454.1 48696,41500 48627.3,41545.9 48580.7,41592.5 47520,41592.5 47500,41590.5 47480,41592.5 47480,41592.5 47420.1,41598.4 47343.3,41621.7 47310.4,41639.3 47272.5,41659.6 47229.7,41694.7 47210.5,41710.5 47197.7,41726 46953.3,41970.5 45723.7,41970.5 45723.7,41905.5 45718.8,41856.5 45704.5,41809.4 45681.3,41765.9 45650.1,41727.9 45612,41696.6 45568.6,41673.4 45521.4,41659.1 45472.4,41654.3 45308.2,41654.3 45342.2,41640.2 45460.5,41561.2 45561.2,41460.5 45596.6,41407.5 48580.7,41407.5 Z"
           id="path822" />
        <path
           style="fill:#FFFFFF; fill-opacity:1.0;  stroke:#FFFFFF; stroke-width:100; stroke-opacity:1;  stroke-linecap:round; stroke-linejoin:round;fill-rule:evenodd;"
           d="M 56323.7,41400 56336.5,41415.5 56374.1,41446.4 56398.5,41466.4 56427.4,41481.9 56461.3,41500 56453.3,41504.3 56398.5,41533.6 56374.1,41553.6 56336.5,41584.5 56323.7,41600 56229.5,41694.2 56190.3,41662 56129.9,41629.7 56064.3,41609.8 55996.1,41603.1 55612.9,41603.1 55819.1,41396.9 55996.1,41396.9 56064.3,41390.2 56129.9,41370.3 56190.3,41338 56229.5,41305.8 Z"
           id="path824" />
        <path
           style="fill:#FFFFFF; fill-opacity:1.0;  stroke:#FFFFFF; stroke-width:100; stroke-opacity:1;  stroke-linecap:round; stroke-linejoin:round;fill-rule:evenodd;"
           d="M 59465.3,39031.5 59470.2,39080.5 59484.4,39127.6 59507.7,39171.1 59538.9,39209.1 59577,39240.4 59620.4,39263.6 59667.5,39277.9 59683.1,39279.4 59683.1,39570.5 59681.1,39590.6 59689,39670.4 59712.3,39747.2 59750.1,39818 59780.6,39855.2 59801,39880.1 59816.6,39892.8 60027.6,40103.8 60027.6,40629.5 59990.4,40649.4 59952.3,40680.6 59921,40718.7 59897.8,40762.1 59883.5,40809.3 59878.7,40858.3 59878.7,41092.5 59251.6,41092.5 59304.9,41070.4 59410.3,41000 59500,40910.3 59570.4,40804.9 59619,40687.8 59643.7,40563.4 59643.7,40436.6 59619,40312.2 59570.4,40195.1 59500,40089.7 59410.3,40000 59316.9,39937.6 59316.9,38905.4 59332.5,38903.9 59379.6,38889.6 59423,38866.4 59461.1,38835.1 59465.3,38830 Z"
           id="path826" />
        <path
           style="fill:#FFFFFF; fill-opacity:1.0;  stroke:#FFFFFF; stroke-width:100; stroke-opacity:1;  stroke-linecap:round; stroke-linejoin:round;fill-rule:evenodd;"
           d="M 45947.7,40274 45960.5,40289.5 45976,40302.3 46022.5,40340.4 46058.7,40359.8 46093.3,40378.3 46170.1,40401.6 46230,40407.5 46230,40407.5 46249.4,40409.4 46250,40410.3 46339.7,40500 46445.1,40570.4 46498.4,40592.5 45596.6,40592.5 45561.2,40539.5 45460.5,40438.8 45342.2,40359.8 45224.5,40311 45342.2,40262.3 45460.5,40183.2 45561.2,40082.6 45596.6,40029.5 45703.3,40029.5 Z"
           id="path828" />
        <path
           style="fill:#FFFFFF; fill-opacity:1.0;  stroke:#FFFFFF; stroke-width:100; stroke-opacity:1;  stroke-linecap:round; stroke-linejoin:round;fill-rule:evenodd;"
           d="M 47697.7,40274 47710.5,40289.5 47772.5,40340.4 47843.3,40378.3 47920.1,40401.6 47980,40407.5 47980,40407.5 48000,40409.5 48020,40407.5 48580.7,40407.5 48627.3,40454.1 48696,40500 48627.3,40545.9 48580.7,40592.5 47001.6,40592.5 47054.9,40570.4 47160.3,40500 47250,40410.3 47320.4,40304.9 47369,40187.8 47393.7,40063.4 47393.7,39970 Z"
           id="path830" />
        <path
           style="fill:#FFFFFF; fill-opacity:1.0;  stroke:#FFFFFF; stroke-width:100; stroke-opacity:1;  stroke-linecap:round; stroke-linejoin:round;fill-rule:evenodd;"
           d="M 48415.4,38991.6 48415.4,39057.6 48437.8,39170.5 48481.9,39276.9 48545.9,39372.7 48627.3,39454.1 48696,39500 48627.3,39545.9 48580.7,39592.5 48168.8,39592.5 46546.4,37970.1 46533.6,37954.6 46471.6,37903.6 46400.8,37865.8 46324,37842.5 46264.1,37836.6 46264.1,37836.6 46244.1,37834.6 46224.1,37836.6 45596.6,37836.6 45561.2,37783.6 45460.5,37682.9 45342.2,37603.9 45224.5,37555.1 45342.2,37506.4 45460.5,37427.3 45561.2,37326.7 45596.6,37273.6 46697.4,37273.6 Z"
           id="path832" />
        <path
           style="fill:#FFFFFF; fill-opacity:1.0;  stroke:#FFFFFF; stroke-width:100; stroke-opacity:1;  stroke-linecap:round; stroke-linejoin:round;fill-rule:evenodd;"
           d="M 46780,39356.3 46686.6,39356.3 46562.2,39381 46445.1,39429.6 46339.7,39500 46333,39506.7 46174.3,39348.1 46161.6,39332.5 46099.5,39281.6 46028.7,39243.8 45951.9,39220.5 45892.1,39214.6 45892.1,39214.6 45872,39212.6 45852,39214.6 45596.6,39214.6 45561.2,39161.5 45460.5,39060.9 45342.2,38981.8 45224.5,38933.1 45342.2,38884.3 45460.5,38805.3 45561.2,38704.6 45596.6,38651.6 46075.3,38651.6 Z"
           id="path834" />
      </g>
    </g>
  </g>
</svg>
